<?xml version="1.0" encoding="UTF-8"?>
<svg width="736px" height="451px" viewBox="0 0 736 451" version="1.1" xmlns="http://www.w3.org/2000/svg" xmlns:xlink="http://www.w3.org/1999/xlink">
    <!-- Generator: Sketch 55.2 (78181) - https://sketchapp.com -->
    <title>Group</title>
    <desc>Created with Sketch.</desc>
    <g id="Enterprise" stroke="none" stroke-width="1" fill="none" fill-rule="evenodd">
        <g id="Enterprise-open" transform="translate(-651.000000, -61.000000)">
            <g id="Top-Section">
                <g id="Background">
                    <g id="Group" transform="translate(582.000000, 0.000000)">
                        <path d="M763.40843,487 C763.40843,487 833.651161,441.354289 791.56662,398.666163 C749.489679,355.978036 736.900033,361.265126 749.014727,313.684355 C761.128661,266.103585 810.192335,248.404352 790.68511,212.2974 C767.268079,168.957679 713.882722,208.494792 680.69992,223.671848 C619.009363,251.886852 619.378686,209.708471 643.070808,170.249489 C666.762931,130.790507 668.462879,65 613.748416,65 C554.237318,65 423.451514,193.364007 351.401685,282.077877 C308.281369,335.171784 276.85247,298.228153 281.218988,264.116944 C283.993467,242.436844 289.767363,207.392619 276.25517,191.268135 C252.800904,163.281454 183.903996,250.964456 159.578098,288.426936 C64.3718931,435.04771 180.101341,487 180.101341,487 L763.40843,487" id="Fill-3" fill-opacity="0.66520979" fill="#CEE4F9"></path>
                        <path d="M216.277113,118.906339 C219.018786,112.633055 219.897588,107.824108 217.950501,103.86105 C212.178639,92.1105195 182.753998,90.227911 163.907724,101.660649 C137.626337,117.603235 130.677802,160.190533 142.708102,169.645636 C156.706543,180.647641 202.124278,151.293903 216.277113,118.906339" id="Fill-4" fill="#CEE4F9"></path>
                        <polyline id="Fill-5" fill="#DDD6FF" points="405 499.5 627 499.5 405 499.5"></polyline>
                        <polygon id="Fill-6" fill-opacity="0.747978584" fill="#2893F9" points="405 500 627 500 627 498 405 498"></polygon>
                        <polyline id="Fill-7" fill="#DDD6FF" points="573 511.5 670 511.5 573 511.5"></polyline>
                        <polygon id="Fill-8" fill-opacity="0.747978584" fill="#2893F9" points="573 512 670 512 670 510 573 510"></polygon>
                        <polyline id="Fill-9" fill="#DDD6FF" points="367 511.5 544 511.5 367 511.5"></polyline>
                        <polygon id="Fill-10" fill-opacity="0.747978584" fill="#2893F9" points="367 512 544 512 544 510 367 510"></polygon>
                        <polyline id="Fill-11" fill="#DDD6FF" points="233 511.5 260 511.5 233 511.5"></polyline>
                        <polygon id="Fill-12" fill-opacity="0.747978584" fill="#2893F9" points="233 512 260 512 260 510 233 510"></polygon>
                        <polyline id="Fill-13" fill="#DDD6FF" points="268 511.5 275 511.5 268 511.5"></polyline>
                        <polygon id="Fill-14" fill-opacity="0.747978584" fill="#2893F9" points="268 512 275 512 275 510 268 510"></polygon>
                        <polyline id="Fill-15" fill="#DDD6FF" points="654 499.5 699 499.5 654 499.5"></polyline>
                        <polygon id="Fill-16" fill-opacity="0.747978584" fill="#2893F9" points="654 501 699 501 699 499 654 499"></polygon>
                        <polyline id="Fill-17" fill="#DDD6FF" points="318 499.5 387 499.5 318 499.5"></polyline>
                        <polygon id="Fill-18" fill-opacity="0.747978584" fill="#2893F9" points="318 500 387 500 387 498 318 498"></polygon>
                        <polyline id="Fill-19" fill="#DDD6FF" points="183 499.5 303 499.5 183 499.5"></polyline>
                        <polygon id="Fill-20" fill-opacity="0.747978584" fill="#2893F9" points="183 500 303 500 303 498 183 498"></polygon>
                        <polyline id="Fill-21" fill="#DDD6FF" points="148 499.5 169 499.5 148 499.5"></polyline>
                        <polygon id="Fill-22" fill-opacity="0.747978584" fill="#2893F9" points="148 500 169 500 169 498 148 498"></polygon>
                        <polygon id="Fill-23" fill-opacity="0.550999781" fill="#2893F9" points="309 487 596 487 596 117 309 117"></polygon>
                        <polyline id="Fill-24" fill-opacity="0.75038243" fill="#2893F9" points="596 349 596 487 309 487 309 393.387325 596 349"></polyline>
                        <polygon id="Fill-25" fill="#FFFFFF" points="325 470 580 470 580 133 325 133"></polygon>
                        <polyline id="Fill-26" fill="#2893F9" points="530.035278 226 512 211.30268 516.93429 205.396645 528.87924 215.130538 553.929831 184 560 188.765105 530.035278 226"></polyline>
                        <polyline id="Fill-27" fill="#FFFFFF" points="471 206.5 495 206.5 471 206.5"></polyline>
                        <polygon id="Fill-28" fill="#1747AF" points="471 207 495 207 495 205 471 205"></polygon>
                        <polyline id="Fill-29" fill="#FFFFFF" points="391 206.5 462 206.5 391 206.5"></polyline>
                        <polygon id="Fill-30" fill="#1747AF" points="391 207 462 207 462 205 391 205"></polygon>
                        <polyline id="Fill-31" fill="#FFFFFF" points="439 217.5 495 217.5 439 217.5"></polyline>
                        <polygon id="Fill-32" fill="#1747AF" points="439 219 495 219 495 217 439 217"></polygon>
                        <polyline id="Fill-33" fill="#FFFFFF" points="432 217.5 435 217.5 432 217.5"></polyline>
                        <polygon id="Fill-34" fill="#1747AF" points="432 219 435 219 435 217 432 217"></polygon>
                        <polyline id="Fill-35" fill="#FFFFFF" points="359 217.5 424 217.5 359 217.5"></polyline>
                        <polygon id="Fill-36" fill="#1747AF" points="359 219 424 219 424 217 359 217"></polygon>
                        <polyline id="Fill-37" fill="#FFFFFF" points="360 230.5 451 230.5 360 230.5"></polyline>
                        <polygon id="Fill-38" fill="#1747AF" points="360 231 451 231 451 229 360 229"></polygon>
                        <polyline id="Fill-39" fill="#2893F9" points="530.035278 286 512 271.30291 516.93429 265.39666 528.87924 275.130141 553.930607 244 560 248.764513 530.035278 286"></polyline>
                        <polyline id="Fill-40" fill="#FFFFFF" points="391 265.5 495 265.5 391 265.5"></polyline>
                        <polygon id="Fill-41" fill="#1747AF" points="391 266 495 266 495 264 391 264"></polygon>
                        <polyline id="Fill-42" fill="#FFFFFF" points="359 265.5 384 265.5 359 265.5"></polyline>
                        <polygon id="Fill-43" fill="#1747AF" points="359 266 384 266 384 264 359 264"></polygon>
                        <polyline id="Fill-44" fill="#FFFFFF" points="360 277.5 485 277.5 360 277.5"></polyline>
                        <polygon id="Fill-45" fill="#1747AF" points="360 279 485 279 485 277 360 277"></polygon>
                        <polyline id="Fill-46" fill="#FFFFFF" points="404 289.5 407 289.5 404 289.5"></polyline>
                        <polygon id="Fill-47" fill="#1747AF" points="404 290 407 290 407 288 404 288"></polygon>
                        <polyline id="Fill-48" fill="#FFFFFF" points="359 289.5 400 289.5 359 289.5"></polyline>
                        <polygon id="Fill-49" fill="#1747AF" points="359 290 400 290 400 288 359 288"></polygon>
                        <polyline id="Fill-50" fill="#2893F9" points="530.035278 345 512 330.30291 516.93429 324.39666 528.87924 334.130141 553.930607 303 560 307.764513 530.035278 345"></polyline>
                        <polyline id="Fill-51" fill="#FFFFFF" points="360 325.5 495 325.5 360 325.5"></polyline>
                        <polygon id="Fill-52" fill="#1747AF" points="360 327 495 327 495 325 360 325"></polygon>
                        <polyline id="Fill-53" fill="#FFFFFF" points="453 336.5 495 336.5 453 336.5"></polyline>
                        <polygon id="Fill-54" fill="#1747AF" points="453 338 495 338 495 336 453 336"></polygon>
                        <polyline id="Fill-55" fill="#FFFFFF" points="359 336.5 443 336.5 359 336.5"></polyline>
                        <polygon id="Fill-56" fill="#1747AF" points="359 338 443 338 443 336 359 336"></polygon>
                        <polyline id="Fill-57" fill="#FFFFFF" points="360 347.5 476 347.5 360 347.5"></polyline>
                        <polygon id="Fill-58" fill="#1747AF" points="360 349 476 349 476 347 360 347"></polygon>
                        <polyline id="Fill-59" fill="#FFFFFF" points="525 228 520 228 520 220 525 228"></polyline>
                        <polyline id="Fill-60" fill="#7760DB" points="525 229 519 229 519 220 520.613337 220 520.613337 227.464033 525 227.464033 525 229"></polyline>
                        <polyline id="Fill-61" fill="#7760DB" points="552 231 528 231 528 229.399458 550.388288 229.399458 550.388288 205 552 205 552 231"></polyline>
                        <polyline id="Fill-62" fill="#FFFFFF" points="538 198.5 540 198.5 538 198.5"></polyline>
                        <polygon id="Fill-63" fill="#7760DB" points="538 199 540 199 540 197 538 197"></polygon>
                        <polyline id="Fill-64" fill="#FFFFFF" points="520 202 520 198 536 198 520 202"></polyline>
                        <polyline id="Fill-65" fill="#7760DB" points="520.567615 202 519 202 519 197 536 197 536 198.812908 520.567615 198.812908 520.567615 202"></polyline>
                        <polyline id="Fill-66" fill="#7760DB" points="534 290 519 290 519 286 520.594642 286 520.594642 288.522349 534 288.522349 534 290"></polyline>
                        <polyline id="Fill-67" fill="#7760DB" points="551 289 536 289 536 287.542687 549.459801 287.542687 549.459801 271 551 271 551 289"></polyline>
                        <polygon id="Fill-68" fill="#7760DB" points="549 267 551 267 551 264 549 264"></polygon>
                        <polyline id="Fill-69" fill="#7760DB" points="519.596446 283 518 283 518 257 541 257 541 258.585801 519.596446 258.585801 519.596446 283"></polyline>
                        <polyline id="Fill-70" fill="#7760DB" points="552 349 519 349 519 334 520.571429 334 520.571429 347.451373 550.428571 347.451373 550.428571 342.065249 552 342.065249 552 349"></polyline>
                        <polygon id="Fill-71" fill="#7760DB" points="549 342 551 342 551 339 549 339"></polygon>
                        <polygon id="Fill-72" fill="#7760DB" points="549 336 551 336 551 324 549 324"></polygon>
                        <polygon id="Fill-73" fill="#7760DB" points="537 319 539 319 539 317 537 317"></polygon>
                        <polyline id="Fill-74" fill="#7760DB" points="520.591565 323 519 323 519 317 535 317 535 318.499438 520.591565 318.499438 520.591565 323"></polyline>
                        <polygon id="Fill-75" fill="#7760DB" points="519 400 521 400 521 398 519 398"></polygon>
                        <polyline id="Fill-76" fill="#7760DB" points="552 410 519 410 519 404 520.571429 404 520.571429 408.450213 550.428571 408.450213 550.428571 404.614491 552 404.614491 552 410"></polyline>
                        <polygon id="Fill-77" fill="#7760DB" points="549 399 551 399 551 382 549 382"></polygon>
                        <polyline id="Fill-78" fill="#2893F9" points="530.035278 405 512 390.30268 516.93429 384.396645 528.87924 394.129772 553.929831 363 560 367.765105 530.035278 405"></polyline>
                        <polyline id="Fill-79" fill="#FFFFFF" points="360 384.5 485 384.5 360 384.5"></polyline>
                        <polygon id="Fill-80" fill="#1747AF" points="360 386 485 386 485 384 360 384"></polygon>
                        <polyline id="Fill-81" fill="#FFFFFF" points="396 397.5 495 397.5 396 397.5"></polyline>
                        <polygon id="Fill-82" fill="#1747AF" points="396 398 495 398 495 396 396 396"></polygon>
                        <polyline id="Fill-83" fill="#FFFFFF" points="386 397.5 389 397.5 386 397.5"></polyline>
                        <polygon id="Fill-84" fill="#1747AF" points="386 398 389 398 389 396 386 396"></polygon>
                        <polyline id="Fill-85" fill="#FFFFFF" points="360 397.5 377 397.5 360 397.5"></polyline>
                        <polygon id="Fill-86" fill="#1747AF" points="360 398 377 398 377 396 360 396"></polygon>
                        <polyline id="Fill-87" fill="#FFFFFF" points="359 408.5 407 408.5 359 408.5"></polyline>
                        <polygon id="Fill-88" fill="#1747AF" points="359 409 407 409 407 407 359 407"></polygon>
                        <polygon id="Fill-89" fill="#1747AF" points="325 472 580 472 580 470 325 470"></polygon>
                        <polyline id="Fill-90" fill="#BADDFE" points="383 117.322381 383 157 523 157 523 117.322381 480.02 117.322381 468.967778 93 437.04 93 425.987778 117.322381 383 117.322381"></polyline>
                        <polyline id="Fill-91" fill-opacity="0.736259834" fill="#2893F9" points="383 117.209389 383 146 523 123.852161 523 117.209389 480.02 117.209389 468.967778 93 437.04 93 425.987778 117.209389 383 117.209389"></polyline>
                        <polygon id="Fill-92" fill-opacity="0.735576923" fill="#2893F9" points="98 489 787 489 787 487 98 487"></polygon>
                        <path d="M633.949279,232.337121 C631.646525,242.958586 627.785888,253.184874 624.704584,263.60914 C621.532423,274.338948 618.332065,285.254263 618.371228,296.438485 C618.421356,310.986003 624.222885,325.43765 634.258662,336.015466 C638.191358,340.160542 642.783551,343.782612 645.812377,348.621392 C648.841203,353.459393 649.958117,360.104142 646.575262,364.704412 C641.694834,371.340587 631.254117,369.902516 624.117147,374.048371 C615.131708,379.268299 613.882424,392.572606 619.006443,401.584522 C624.129679,410.596438 647.458768,436.380401 680.746875,429.995207 C695.645065,427.13777 715.840372,413.027519 715.264684,397.939068 C714.664715,382.227842 699.588727,369.501882 700.101755,353.787538 C700.437769,343.49266 707.393025,334.791741 713.413082,326.413512 C719.433921,318.035283 725.042772,307.826922 722.271635,297.903058 C718.190904,283.293964 699.284826,278.781771 690.129421,266.661437 C684.233902,258.856878 682.935274,248.590839 682.569497,238.833775 C682.202936,229.075932 682.453576,219.076463 679.182725,209.871245 C671.249974,187.54333 643.085102,190.206686 633.949279,232.337121" id="Fill-93" fill="#AFD5F9"></path>
                        <polygon id="Fill-94" fill="#1747AF" points="667 457 669 457 669 287 667 287"></polygon>
                        <path d="M668.579434,337 L667,336.742472 C669.588895,321.120693 687.481406,311.406163 688.241904,311 L689,312.400507 C688.820683,312.495888 671.039444,322.157164 668.579434,337" id="Fill-95" fill="#1747AF"></path>
                        <path d="M667.433661,404 C665.699811,393.957043 653.127816,387.397419 653,387.332353 L653.752605,386 C654.298005,386.279181 667.138335,392.971208 669,403.754865 L667.433661,404" id="Fill-96" fill="#1747AF"></path>
                        <path d="M677.752333,487 L660.247667,487 C649.617,487 641,478.233042 641,467.417374 L641,451 L697,451 L697,467.417374 C697,478.233042 688.382222,487 677.752333,487" id="Fill-97" fill="#FFC359"></path>
                        <path d="M650.304697,486 C643.948277,482.476456 640,475.584727 640,468.017152 L640,462 L641.495276,462 L641.495276,468.017152 C641.495276,474.997207 645.137022,481.353465 651,484.604935 L650.304697,486" id="Fill-98" fill="#1747AF"></path>
                        <polygon id="Fill-99" fill="#FFFFFF" points="641 458 697 458 697 456 641 456"></polygon>
                        <polygon id="Fill-100" fill="#1747AF" points="661 453 697 453 697 451 661 451"></polygon>
                        <polygon id="Fill-101" fill="#1747AF" points="668 489 709 489 709 487 668 487"></polygon>
                        <polygon id="Fill-102" fill="#1747AF" points="155 489 228 489 228 487 155 487"></polygon>
                        <polygon id="Fill-103" fill="#1747AF" points="478 489 485 489 485 487 478 487"></polygon>
                        <polygon id="Fill-104" fill="#1747AF" points="244 489 467 489 467 487 244 487"></polygon>
                        <polygon id="Fill-105" fill="#1747AF" points="509 489 617 489 617 487 509 487"></polygon>
                        <polygon id="Fill-106" fill="#1747AF" points="137 489 143 489 143 487 137 487"></polygon>
                        <polygon id="Fill-107" fill="#1747AF" points="718 489 733 489 733 487 718 487"></polygon>
                        <polygon id="Fill-108" fill-opacity="0.979867788" fill="#1444AF" points="595 476 597 476 597 439 595 439"></polygon>
                        <polygon id="Fill-109" fill-opacity="0.979867788" fill="#1444AF" points="595 422 597 422 597 270 595 270"></polygon>
                        <polygon id="Fill-110" fill-opacity="0.979867788" fill="#1444AF" points="309 421 311 421 311 375 309 375"></polygon>
                        <polygon id="Fill-111" fill-opacity="0.979867788" fill="#1444AF" points="309 367 311 367 311 364 309 364"></polygon>
                        <polygon id="Fill-112" fill-opacity="0.979867788" fill="#1444AF" points="309 361 311 361 311 323 309 323"></polygon>
                        <polyline id="Fill-113" fill-opacity="0.979867788" fill="#1444AF" points="524 158 449 158 449 156.431373 522.430043 156.431373 522.430043 118 524 118 524 158"></polyline>
                        <polygon id="Fill-114" fill-opacity="0.979867788" fill="#1444AF" points="395 158 440 158 440 156 395 156"></polygon>
                        <polyline id="Fill-115" fill="#1446AF" points="597 178 595.384543 178 595.384543 118.557692 572 118.557692 572 117 597 117 597 178"></polyline>
                        <polygon id="Fill-116" fill="#1446AF" points="555 119 566 119 566 117 555 117"></polygon>
                        <path d="M459,107.50038 C459,111.089972 456.089972,114 452.49962,114 C448.910028,114 446,111.089972 446,107.50038 C446,103.910028 448.910028,101 452.49962,101 C456.089972,101 459,103.910028 459,107.50038" id="Fill-117" fill="#FFFFFF"></path>
                        <path d="M459.655877,111 L458.181175,110.56329 C458.361357,110.029532 458.45338,109.474048 458.45338,108.909874 C458.45338,105.898527 455.8365,103.448459 452.621078,103.448459 C450.382346,103.448459 448.377154,104.61809 447.386544,106.499638 L446,105.859419 C447.251989,103.478877 449.789218,102 452.621078,102 C456.689461,102 460,105.100426 460,108.909874 C460,109.622515 459.884004,110.325742 459.655877,111" id="Fill-118" fill="#1647AF"></path>
                        <path d="M451.89102,115 C448.091245,115 445,111.947529 445,108.195415 L445.002889,108 L446.446674,108.037799 L446.444507,108.195415 C446.444507,111.161589 448.88789,113.573612 451.89102,113.573612 C452.460878,113.573612 453.022069,113.487315 453.557981,113.317575 L454,114.675497 C453.321082,114.890881 452.611107,115 451.89102,115" id="Fill-119" fill="#1647AF"></path>
                        <polyline id="Fill-120" fill="#7760DB" points="520.521156 388 519 388 519 376 538 376 538 377.547389 520.521156 377.547389 520.521156 388"></polyline>
                        <path d="M76,296.555556 C72.9977778,296.555556 70.5555556,298.998556 70.5555556,302 C70.5555556,305.002222 72.9977778,307.444444 76,307.444444 C79.0022222,307.444444 81.4444444,305.002222 81.4444444,302 C81.4444444,298.998556 79.0022222,296.555556 76,296.555556 Z M76,309 C72.1398889,309 69,305.860111 69,302 C69,298.139889 72.1398889,295 76,295 C79.8601111,295 83,298.139889 83,302 C83,305.860111 79.8601111,309 76,309 L76,309 Z" id="Fill-121" fill="#CEE4F9"></path>
                        <polygon id="Fill-122" fill="#CEE4F9" points="704 126 706 126 706 120 704 120"></polygon>
                        <polygon id="Fill-123" fill="#CEE4F9" points="704 167 706 167 706 161 704 161"></polygon>
                        <polyline id="Fill-124" fill="#CEE4F9" points="696.560984 129 693 123.712335 694.439016 123 698 128.287665 696.560984 129"></polyline>
                        <polyline id="Fill-125" fill="#CEE4F9" points="716.560984 164 713 158.712251 714.439847 158 718 163.287749 716.560984 164"></polyline>
                        <polyline id="Fill-126" fill="#CEE4F9" points="690.287749 136 685 132.439608 685.712251 131 691 134.560392 690.287749 136"></polyline>
                        <polyline id="Fill-127" fill="#CEE4F9" points="725.287665 156 720 152.439847 720.712335 151 726 154.560153 725.287665 156"></polyline>
                        <polygon id="Fill-128" fill="#CEE4F9" points="682 144 688 144 688 142 682 142"></polygon>
                        <polygon id="Fill-129" fill="#CEE4F9" points="723 144 729 144 729 142 723 142"></polygon>
                        <polyline id="Fill-130" fill="#CEE4F9" points="685.712251 156 685 154.560153 690.287749 151 691 152.439847 685.712251 156"></polyline>
                        <polyline id="Fill-131" fill="#CEE4F9" points="720.712335 136 720 134.560392 725.287665 131 726 132.439608 720.712335 136"></polyline>
                        <polyline id="Fill-132" fill="#CEE4F9" points="694.439016 164 693 163.287749 696.560984 158 698 158.712251 694.439016 164"></polyline>
                        <polyline id="Fill-133" fill="#CEE4F9" points="714.439847 129 713 128.287665 716.560984 123 718 123.712335 714.439847 129"></polyline>
                        <path d="M346.456,73.0004 C349.936,74.2964432 352.704,77.0645355 354,80.5438515 C355.296,77.0645355 358.0648,74.2964432 361.544,73.0004 C358.0648,71.7035568 355.296,68.9346645 354,65.4561485 C352.704,68.9346645 349.936,71.7035568 346.456,73.0004 Z M354.8,85 L353.2,85 C353.2,78.8245942 348.176,73.8004267 342,73.8004267 L342,72.2003733 C348.176,72.2003733 353.2,67.1754058 353.2,61 L354.8,61 C354.8,67.1754058 359.8248,72.2003733 366,72.2003733 L366,73.8004267 C359.8248,73.8004267 354.8,78.8245942 354.8,85 L354.8,85 Z" id="Fill-134" fill="#CEE4F9"></path>
                        <polygon id="Fill-135" fill="#FFFFFF" points="381 159 383 159 383 118 381 118"></polygon>
                        <polyline id="Fill-136" fill="#FFC7BD" points="281 184.490639 289.40631 183 300 228.486512 285.82398 231 281 184.490639"></polyline>
                        <polyline id="Fill-137" fill="#EB635D" points="349 201.51751 142.87216 255 140 243.48249 346.127062 190 349 201.51751"></polyline>
                        <polyline id="Fill-138" fill="#FFC359" points="346 190.51751 139.872938 244 137 232.48249 343.12784 179 346 190.51751"></polyline>
                        <polyline id="Fill-139" fill="#FFC359" points="344 179.51751 137.87216 233 135 221.48249 341.12784 168 344 179.51751"></polyline>
                        <polyline id="Fill-140" fill-opacity="0.77581403" fill="#2893F9" points="126 258.599287 108.767479 263 100 228.399918 117.233313 224 126 258.599287"></polyline>
                        <polyline id="Fill-141" fill="#CEE4F9" points="144 254.599287 126.766687 259 118 224.400713 135.232521 220 144 254.599287"></polyline>
                        <polyline id="Fill-142" fill="#CEE4F9" points="399 171.537225 342 168 350.611432 202 399 171.537225"></polyline>
                        <polyline id="Fill-143" fill-opacity="0.600169362" fill="#2893F9" points="381 182.059591 349.854566 202 347 190.520501 379.988588 178 381 182.059591"></polyline>
                        <polyline id="Fill-144" fill="#2893F9" points="398 172 381.952058 182 381 178.281429 398 172"></polyline>
                        <polyline id="Fill-145" fill="#58ABFA" points="397 172.093537 379.913774 178 378 171 397 172.093537"></polyline>
                        <polyline id="Fill-146" fill-opacity="0.669225306" fill="#2893F9" points="140.245306 243 124 247.418994 126.754694 259 143 254.581006 140.245306 243"></polyline>
                        <polyline id="Fill-147" fill="#2893F9" points="123.245198 247 107 251.418994 109.754802 263 126 258.581006 123.245198 247"></polyline>
                        <polyline id="Fill-148" fill="#1747AF" points="178.38473 246 178 244.512609 339.616049 204 340 205.487391 178.38473 246"></polyline>
                        <polyline id="Fill-149" fill="#1747AF" points="136.381096 256 136 254.62429 168.618904 247 169 248.37642 136.381096 256"></polyline>
                        <polyline id="Fill-150" fill="#1747AF" points="108.059925 265 102 241.38425 103.527586 241 109.198328 263.101399 132.611604 257.197852 133 258.711422 108.059925 265"></polyline>
                        <polyline id="Fill-151" fill="#1546AF" points="102.686168 236 101 229.28762 117.639201 225 118 226.43662 102.779844 230.358784 104.104481 235.635285 102.686168 236"></polyline>
                        <polyline id="Fill-152" fill="#FFFFFF" points="141.481333 250 134 220.387972 135.518667 220 143 249.612028 141.481333 250"></polyline>
                        <polyline id="Fill-153" fill="#FFFFFF" points="122.702811 248 122 244.425974 123.297189 244 124 247.574026 122.702811 248"></polyline>
                        <polyline id="Fill-154" fill="#FFFFFF" points="121.380276 241 119 232.378915 120.619724 232 123 240.620315 121.380276 241"></polyline>
                        <polyline id="Fill-155" fill="#FFFFFF" points="345.545045 191 340 168.384892 341.454955 168 347 190.615108 345.545045 191"></polyline>
                        <path d="M195.971766,267.249832 C198.410537,263.937451 200.848529,260.705631 200.938047,255.848515 C201.159117,243.878579 195.85656,243.317782 196.554798,231.357232 C197.253035,219.396682 206.081807,220.031783 206.780044,208.071233 C206.87034,206.52728 206.754356,205.166349 206.485025,203.953243 C205.585957,202.364708 204.830117,200.689355 204.226068,198.945173 C204.11709,198.641701 204.016674,198.328844 203.924822,198.025372 C202.956474,194.933555 202.469187,191.637599 202.532239,188.228232 C202.846718,171.224416 216.825477,157.690192 233.748198,158.005396 C250.681038,158.321382 264.149935,172.367911 263.835456,189.371727 C263.772405,192.781094 263.164463,196.056714 262.082468,199.110206 C261.979717,199.409767 261.867625,199.700725 261.756312,200.001068 C261.74775,200.009672 261.74775,200.009672 261.74775,200.009672 C261.079092,201.73821 260.252416,203.392446 259.295746,204.955952 C258.990607,206.158108 258.824027,207.505742 258.857498,209.042656 C259.113597,221.021195 267.950931,220.715377 268.207029,232.693916 C268.463127,244.672456 263.143446,245.034589 262.922376,257.004524 C262.832859,261.86164 265.149419,265.182625 267.472985,268.583388 C269.779425,271.992755 272.092872,275.482683 271.997127,280.65031 C271.723904,295.478983 259.544838,307.27059 244.786887,306.995275 L217.214684,306.480624 C202.456733,306.20531 190.730704,293.968663 191.004706,279.139989 C191.099672,273.972362 193.540779,270.570817 195.971766,267.249832" id="Fill-156" fill="#40327A"></path>
                        <path d="M260.959276,291.799315 C261.621925,301.718322 254.119121,310.296526 244.200278,310.959187 C234.282209,311.622622 225.704148,304.118919 225.040724,294.200685 C224.378075,284.281678 231.880879,275.703474 241.799722,275.040813 C251.717791,274.377378 260.295852,281.881081 260.959276,291.799315" id="Fill-157" fill="#FFC7BD"></path>
                        <path d="M261.97621,234.333101 C262.363081,239.843675 257.985543,244.608891 252.200247,244.977339 C246.414143,245.345787 241.409857,241.177474 241.023794,235.666899 C240.636923,230.157095 245.013654,225.391109 250.799757,225.022661 C256.585054,224.654213 261.589339,228.822526 261.97621,234.333101" id="Fill-158" fill="#FF95A9"></path>
                        <path d="M291.749364,222.208631 C295.776104,221.242607 299.824275,223.723154 300.791073,227.749974 C301.757872,231.776793 299.277375,235.824251 295.250636,236.791069 C291.223896,237.757887 287.175725,235.277341 286.208927,231.250521 C285.242128,227.223701 287.722625,223.175449 291.749364,222.208631" id="Fill-159" fill="#FFC7BD"></path>
                        <polyline id="Fill-160" fill="#FFC7BD" points="250 224.59896 292.205575 222 294 236.82437 252.469356 245 250 224.59896"></polyline>
                        <path d="M197,480 C197,482.761538 194.761538,485 192,485 C189.238462,485 187,482.761538 187,480 C187,477.238462 189.238462,475 192,475 C194.761538,475 197,477.238462 197,480" id="Fill-161" fill="#FF95A9"></path>
                        <path d="M244,480 C244,482.761538 246.238462,485 249,485 C251.761538,485 254,482.761538 254,480 C254,477.238462 251.761538,475 249,475 C246.238462,475 244,477.238462 244,480" id="Fill-162" fill="#2893F9"></path>
                        <path d="M260.844428,233.914462 L262,290.584754 L226.087483,293 L207.304986,234.667377 C206.062727,230.80859 208.75932,226.803424 212.782537,226.533247 L250.113784,224.023011 C255.840561,223.637599 260.726781,228.141853 260.844428,233.914462" id="Fill-163" fill="#FFC7BD"></path>
                        <path d="M241.189186,236.879672 C242.27938,242.30334 247.778804,245.858103 253.473655,244.819823 C259.168507,243.781543 262.901008,238.543227 261.810814,233.120328 C260.72062,227.69666 255.220389,224.141897 249.526345,225.180177 C243.831493,226.217688 240.098992,231.456004 241.189186,236.879672" id="Fill-164" fill="#FFC7BD"></path>
                        <path d="M261.352958,292 L225.312803,292 L223.370593,293.497917 C216.827842,298.544828 213,306.309071 213,314.534151 L213,322.229153 C213,328.177738 217.857849,333 223.850333,333 L255.149667,333 C261.142151,333 266,328.176968 266,322.228383 L266,311.692186 C265.999225,304.860392 264.409651,298.120919 261.352958,292" id="Fill-165" fill="#2893F9"></path>
                        <path d="M269.976529,254.139489 C269.88934,252.873106 269.559779,251.68269 269.05184,250.593303 L269.063039,250.588604 L259.923333,231 L241,239.459 L250.138905,259.047604 L250.149304,259.042905 C251.893895,262.78175 255.856621,265.267526 260.293689,264.976971 C266.024203,264.601833 270.358884,259.750106 269.976529,254.139489" id="Fill-166" fill="#FFC7BD"></path>
                        <polyline id="Fill-167" fill-opacity="0.841318837" fill="#263659" points="262.451942 239 261 235.726954 262.548058 235 264 238.273046 262.451942 239"></polyline>
                        <path d="M259.224703,266 C257.763458,266 256.345236,265.69908 255,265.102754 L255.609236,263.656447 C256.953704,264.251985 258.38345,264.501702 259.858524,264.401657 C264.930626,264.05426 268.781183,259.539671 268.442377,254.338953 C268.368623,253.211684 268.092815,252.104109 267.621867,251.04695 L267.295353,250.313556 L267.306109,250.309617 L263.450174,241.653832 L264.847653,241 L269.357383,251.121786 L269.321275,251.137541 C269.68697,252.141133 269.906695,253.178598 269.975839,254.233394 C270.370728,260.301424 265.8779,265.568314 259.960703,265.974004 C259.714089,265.991335 259.468244,266 259.224703,266" id="Fill-168" fill-opacity="0.841318837" fill="#263659"></path>
                        <path d="M204.778442,243.565882 C208.00568,248.153802 214.527997,249.38058 219.344626,246.306328 C224.161255,243.232075 225.449404,237.021269 222.222166,232.434118 C218.99412,227.846198 212.472611,226.61942 207.655175,229.693672 C202.838546,232.767925 201.550396,238.978731 204.778442,243.565882" id="Fill-169" fill="#FFC7BD"></path>
                        <polyline id="Fill-170" fill="#FFC7BD" points="205.807452 230 174 258.306043 182.85981 270 218 246.093276 205.807452 230"></polyline>
                        <path d="M245,323 C245,329.075143 249.924857,334 256,334 C262.075143,334 267,329.075143 267,323 C267,316.924857 262.075143,312 256,312 C249.924857,312 245,316.924857 245,323" id="Fill-171" fill="#2A4C96"></path>
                        <path d="M213,323 C213,329.075143 217.924857,334 224,334 C230.075143,334 235,329.075143 235,323 C235,316.924857 230.075143,312 224,312 C217.924857,312 213,316.924857 213,323" id="Fill-172" fill="#2A4C96"></path>
                        <path d="M244,379.5 C244,384.194916 247.805836,388 252.5,388 C257.194164,388 261,384.194916 261,379.5 C261,374.805836 257.194164,371 252.5,371 C247.805836,371 244,374.805836 244,379.5" id="Fill-173" fill="#8B77E8"></path>
                        <polyline id="Fill-174" fill="#F3D392" points="245.000787 324 245 380.336938 262.771833 381 267 324.820267 245.000787 324"></polyline>
                        <polyline id="Fill-175" fill="#F3D392" points="228.696234 228 245 225.639331 242.303018 204 226 206.360669 228.696234 228"></polyline>
                        <path d="M228.076513,225.631243 C228.701562,230.28335 232.979558,233.547783 237.631502,232.923485 C242.283446,232.298413 245.547764,228.020267 244.923487,223.36816 C244.298438,218.716053 240.020442,215.45162 235.368498,216.076691 C230.716554,216.70099 227.452236,220.979136 228.076513,225.631243" id="Fill-176" fill="#F3D392"></path>
                        <path d="M223.268109,198.965964 L227,198.465078 L225.997549,191 L222.264904,191.501639 C220.203514,191.778067 218.757454,193.673901 219.033862,195.73544 C219.311024,197.79698 221.206719,199.243146 223.268109,198.965964" id="Fill-177" fill="#F3D392"></path>
                        <path d="M250.015768,172 L221,175.864194 L226.031758,213 L244.05229,210.599457 C251.266891,209.638623 256.170109,202.844037 254.756948,195.763672 L250.015768,172" id="Fill-178" fill="#F3D392"></path>
                        <path d="M222.819654,190.893518 L222.036925,191 L219,168.251068 L242.301784,165.101912 C248.455407,164.27072 254.113802,168.615012 254.939972,174.806047 L255,175.251839 L254.216481,175.357526 C247.551043,176.258647 241.359508,179.321982 236.581781,184.084255 C232.852959,187.799988 228.021523,190.191057 222.819654,190.893518" id="Fill-179" fill="#40327A"></path>
                        <polyline id="Fill-180" fill="#F3D392" points="249 242 247.782687 225 220 226.732995 249 242"></polyline>
                        <polyline id="Fill-181" fill="#F3D392" points="261 379.666812 253.770409 479 244 478.616525 244 379 261 379.666812"></polyline>
                        <path d="M216.997753,304.376105 C217.06635,306.308024 215.555814,307.929156 213.623895,307.997753 C211.691976,308.06635 210.070844,306.555814 210.002247,304.623895 C209.93365,302.691976 211.444186,301.070844 213.376105,301.002247 C215.308024,300.93365 216.929156,302.444186 216.997753,304.376105" id="Fill-182" fill="#FF95A9"></path>
                        <path d="M222.734294,310.996674 C222.113553,311.018674 221.516207,310.930672 220.953953,310.758597 L220.953173,310.763312 L212,308.022684 L212.995837,300.336671 L222.3475,300.003521 C225.360745,299.895876 227.889718,302.269567 227.996554,305.304843 C228.10261,308.340905 225.747538,310.889028 222.734294,310.996674" id="Fill-183" fill="#F3D392"></path>
                        <path d="M182.919641,268.559045 C186.26593,266.117802 186.999493,261.426647 184.559045,258.080359 C182.117802,254.73407 177.426647,254.000507 174.080359,256.440955 C170.73407,258.882198 170.000507,263.573353 172.440955,266.919641 C174.882198,270.26593 179.573353,270.999493 182.919641,268.559045" id="Fill-184" fill="#FFC7BD"></path>
                        <polyline id="Fill-185" fill="#F3D392" points="173 268.353898 210.012648 307 216 302.048529 184.312047 259 173 268.353898"></polyline>
                        <polyline id="Fill-186" fill="#FFC7BD" points="205.24128 302 212 296.42065 184.397566 259 173 268.407126 205.24128 302"></polyline>
                        <polyline id="Fill-187" fill="#F3D392" points="213.482542 322 187 478.963003 196.990613 481 235 326.387976 213.482542 322"></polyline>
                        <path d="M187.09571,481 L197,481 L197,487 L183.123327,487 C181.950812,487 181,486.168 181,485.142 C181,484.477333 181.406076,483.862667 182.065092,483.531333 L187.09571,481" id="Fill-188" fill="#1747AF"></path>
                        <path d="M249.9516,200 C250.293219,202.364836 248.78995,204.579999 246.593933,204.947879 C244.398647,205.31576 242.341619,203.696927 242,201.332091 L249.9516,200" id="Fill-189" fill="#FFFFFF"></path>
                        <polyline id="Fill-190" fill="#624AC9" points="188.343091 475 187 474.729907 187.656909 470 189 470.270093 188.343091 475"></polyline>
                        <polygon id="Fill-191" fill="#624AC9" points="244 363 246 363 246 358 244 358"></polygon>
                        <polyline id="Fill-192" fill-opacity="0.841318837" fill="#263659" points="192.954176 263 192 261.766625 195.046681 260 196 261.232633 192.954176 263"></polyline>
                        <polyline id="Fill-193" fill-opacity="0.841318837" fill="#263659" points="198.807279 260 198 258.700156 214.191996 247 215 248.299844 198.807279 260"></polyline>
                        <polyline id="Fill-194" fill-opacity="0.841318837" fill="#263659" points="256.093456 225 256 223.165441 286.905758 221 287 222.834559 256.093456 225"></polyline>
                        <polyline id="Fill-195" fill="#1747AF" points="266.386152 187 266 185.534286 296.61463 178 297 179.465714 266.386152 187"></polyline>
                        <path d="M279.380053,181.084837 C278.505236,179.361777 279.191792,177.255893 280.914832,176.380365 C282.637871,175.504838 284.74443,176.192102 285.619947,177.915163 C286.494764,179.638223 285.808208,181.744807 284.085168,182.619635 C282.362129,183.495162 280.25557,182.807898 279.380053,181.084837" id="Fill-196" fill="#F3D392"></path>
                        <path d="M270.936762,177.817693 C271.481064,177.540887 272.049898,177.370958 272.621797,177.290223 L272.620264,177.284841 L281.730032,176 L284,183.235401 L275.797912,187.415171 C273.156133,188.761524 269.925588,187.704279 268.583233,185.054631 C267.240878,182.404214 268.294217,179.164046 270.936762,177.817693" id="Fill-197" fill="#F3D392"></path>
                        <polyline id="Fill-198" fill="#2893F9" points="204 375 263.193009 375 267 324.636109 212.99049 322 204 375"></polyline>
                        <polyline id="Fill-199" fill="#3B61B4" points="188.597408 467 187 466.744292 211.401782 327 213 327.255708 188.597408 467"></polyline>
                        <polygon id="Fill-200" fill="#3B61B4" points="244 474 246 474 246 383 244 383"></polygon>
                        <path d="M254.90429,481 L245,481 L245,487 L258.875911,487 C260.049188,487 261,486.168 261,485.142 C261,484.477333 260.593924,483.862667 259.934908,483.531333 L254.90429,481" id="Fill-201" fill="#1747AF"></path>
                    </g>
                </g>
            </g>
        </g>
    </g>
</svg>